# xmcd CD database file
#
# Track frame offsets:
#	150
#	27632
#	44972
#	54853
#	67334
#	79313
#	105589
#	131145
#	145476
#	167703
#	187757
#	202530
#	211752
#	231631
#	248362
#	272406
#	287338
#	308963
#
# Disc length: 4257 seconds
#
# Revision: 0
# Processed by: cddbd v1.4PL0 Copyright (c) Steve Scherf et al.
# Submitted via: CdAid 2001.05.15.01
#
DISCID=07109f12
DTITLE=Various Artist - Rhytm and Blues CD1
DYEAR=1900
DGENRE=
TTITLE0=John Lee Hooker: Lucille
TTITLE1=United Blues Guitars: The House Of The Rising Sun
TTITLE2=John Mayall: I'm Your Witchdoctor
TTITLE3=Johnny Winter: Leaving Blues
TTITLE4=Canned Heat: Got My Mojo Working
TTITLE5=Willie Dixon: I Just Want Make Love With You
TTITLE6=Peppermint Harris: Ain' No Business We an Do
TTITLE7=Travelling Blues: The Colour Of The Blues
TTITLE8=Roger Chapman: Moth To A Flame
TTITLE9=Eric Clapton and Jimmy Page: Wang-Dang Doodle
TTITLE10=Gordon Lightfoot: Early Morning Rain
TTITLE11=Commander Cody: Doggy Ligy Lo
TTITLE12=Elvin Bischop: So Fine
TTITLE13=Grateful Dead: Morning Dew
TTITLE14=Boz Scaggs: Near You
TTITLE15=Taj Mahal: Stagger Lee
TTITLE16=John Hammond: Hey Bo Didley
TTITLE17=Doc Watson: Windy And Warm
EXTD=
EXTT0=
EXTT1=
EXTT2=
EXTT3=
EXTT4=
EXTT5=
EXTT6=
EXTT7=
EXTT8=
EXTT9=
EXTT10=
EXTT11=
EXTT12=
EXTT13=
EXTT14=
EXTT15=
EXTT16=
EXTT17=
PLAYORDER=
